<svg xmlns="http://www.w3.org/2000/svg" width="319" height="80" viewBox="0 0 319 80" fill="none"><path d="M69.4786 79.3836C68.9444 79.3836 68.5746 79.2809 68.3691 79.0754C68.1636 78.8699 68.0609 78.5206 68.0609 78.0275V34.8174C68.0609 34.0366 68.3896 33.6462 69.0471 33.6462H76.6289C77.2453 33.6462 77.5535 34.0161 77.5535 34.7558V49.118C77.5535 49.6112 77.6563 49.8783 77.8617 49.9194C78.1083 49.9194 78.3754 49.7961 78.6631 49.5495C79.3206 48.9331 80.0603 48.3783 80.8821 47.8852C81.7451 47.351 82.7108 46.9195 83.7792 46.5908C84.8477 46.262 86.0189 46.0976 87.2928 46.0976C90.0871 46.0976 92.4295 46.7962 94.3198 48.1934C96.2512 49.5906 97.71 51.5426 98.6963 54.0493C99.6825 56.556 100.176 59.4942 100.176 62.8639C100.176 68.0828 98.9634 72.2538 96.5389 75.3769C94.1143 78.459 90.6419 80 86.1216 80C84.6422 80 83.2656 79.774 81.9917 79.3219C80.7589 78.8288 79.6699 78.1919 78.7247 77.4111C77.8207 76.6303 77.0399 75.829 76.3824 75.0071C76.218 74.8016 76.0536 74.7194 75.8892 74.7605C75.766 74.7605 75.6838 74.9044 75.6427 75.192L74.903 78.1508C74.6975 78.9726 74.2249 79.3836 73.4853 79.3836H69.4786ZM77.5535 68.1033C77.5535 69.3362 77.8412 70.4046 78.4165 71.3087C78.9918 72.2127 79.7315 72.9319 80.6356 73.4661C81.5807 73.9592 82.6081 74.2058 83.7176 74.2058C85.0737 74.2058 86.2654 73.8359 87.2928 73.0962C88.3201 72.3566 89.1009 71.1648 89.6351 69.5211C90.2104 67.8362 90.4981 65.6583 90.4981 62.9872C90.4981 59.2065 89.9433 56.4533 88.8338 54.7273C87.7242 53.0014 86.101 52.1384 83.9642 52.1384C82.6492 52.1384 81.4575 52.4466 80.389 53.063C79.3206 53.6383 78.3754 54.4191 77.5535 55.4054V68.1033Z" fill="white"></path><path d="M120.663 80C117.417 80 114.541 79.2809 112.034 77.8426C109.568 76.4043 107.637 74.4318 106.24 71.9251C104.842 69.3773 104.144 66.4801 104.144 63.2337C104.144 59.823 104.863 56.8437 106.301 54.2958C107.739 51.7069 109.712 49.6933 112.219 48.2551C114.725 46.8168 117.561 46.0976 120.725 46.0976C124.054 46.0976 126.951 46.8373 129.416 48.3167C131.882 49.755 133.793 51.7686 135.149 54.3575C136.546 56.9053 137.245 59.8435 137.245 63.1721C137.245 66.4596 136.546 69.3773 135.149 71.9251C133.752 74.4318 131.8 76.4043 129.293 77.8426C126.828 79.2809 123.951 80 120.663 80ZM120.725 73.7126C122.246 73.7126 123.519 73.3223 124.547 72.5415C125.574 71.7196 126.334 70.5073 126.828 68.9047C127.362 67.302 127.629 65.3501 127.629 63.0488C127.629 60.6243 127.362 58.6312 126.828 57.0697C126.334 55.467 125.574 54.2547 124.547 53.4329C123.519 52.611 122.246 52.2001 120.725 52.2001C119.246 52.2001 117.972 52.611 116.903 53.4329C115.876 54.2547 115.095 55.467 114.561 57.0697C114.027 58.6312 113.76 60.6243 113.76 63.0488C113.76 65.3912 114.027 67.3637 114.561 68.9663C115.095 70.5279 115.876 71.7196 116.903 72.5415C117.972 73.3223 119.246 73.7126 120.725 73.7126Z" fill="white"></path><path d="M152.078 77.9042C152.078 78.4384 151.954 78.8288 151.708 79.0754C151.461 79.2809 151.03 79.3836 150.413 79.3836H143.879C142.975 79.3836 142.523 78.9521 142.523 78.0891L142.708 34.8174C142.708 34.0366 143.037 33.6462 143.694 33.6462H151.153C151.769 33.6462 152.078 34.0161 152.078 34.7558V77.9042Z" fill="white"></path><path d="M181.58 79.3836C181.252 79.3836 180.943 79.3014 180.656 79.137C180.409 78.9316 180.286 78.6028 180.286 78.1508V76.4248C180.286 76.1372 180.204 75.9728 180.039 75.9317C179.875 75.8906 179.669 75.9728 179.423 76.1783C178.765 76.7947 178.026 77.4111 177.204 78.0275C176.382 78.6028 175.416 79.0754 174.307 79.4452C173.197 79.8151 171.903 80 170.423 80C167.917 80 165.698 79.3836 163.766 78.1508C161.835 76.918 160.314 75.0687 159.205 72.6031C158.095 70.0964 157.54 66.9938 157.54 63.2954C157.54 59.8435 158.136 56.8437 159.328 54.2958C160.561 51.7069 162.205 49.6933 164.259 48.2551C166.314 46.8168 168.574 46.0976 171.04 46.0976C172.684 46.0976 174.142 46.3647 175.416 46.899C176.69 47.4332 177.923 48.2551 179.115 49.3646C179.443 49.6112 179.69 49.7139 179.854 49.6728C180.06 49.5906 180.163 49.3235 180.163 48.8715V34.7558C180.163 34.0161 180.491 33.6462 181.149 33.6462H188.669C189.327 33.6462 189.655 34.0366 189.655 34.8174V78.0891C189.655 78.5412 189.553 78.8699 189.347 79.0754C189.142 79.2809 188.772 79.3836 188.238 79.3836H181.58ZM180.163 55.2205C179.259 54.2342 178.334 53.4945 177.389 53.0014C176.485 52.4672 175.437 52.2001 174.245 52.2001C172.889 52.2001 171.656 52.5905 170.547 53.3712C169.478 54.1109 168.636 55.2821 168.019 56.8847C167.444 58.4874 167.156 60.5832 167.156 63.1721C167.156 65.8021 167.444 67.9184 168.019 69.5211C168.636 71.1237 169.458 72.2949 170.485 73.0346C171.553 73.7332 172.766 74.0825 174.122 74.0825C175.272 74.0825 176.3 73.8154 177.204 73.2812C178.108 72.7469 178.827 72.0689 179.361 71.247C179.895 70.4252 180.163 69.5622 180.163 68.6581V55.2205Z" fill="white"></path><path d="M197.753 79.3836C196.89 79.3836 196.459 78.9726 196.459 78.1508V47.8852C196.459 47.1044 196.788 46.714 197.445 46.714H204.842C205.458 46.714 205.767 47.0633 205.767 47.7619V50.7823C205.767 51.0289 205.828 51.1933 205.952 51.2754C206.116 51.3576 206.301 51.2755 206.506 51.0289C207.575 50.0426 208.643 49.1797 209.712 48.44C210.78 47.7003 211.91 47.125 213.102 46.714C214.294 46.262 215.526 46.036 216.8 46.036C219.019 46.036 220.869 46.5702 222.348 47.6386C223.868 48.666 224.937 50.0426 225.553 51.7686C225.635 51.933 225.738 52.0151 225.861 52.0151C226.026 51.974 226.19 51.8713 226.355 51.7069C227.341 50.6385 228.409 49.6933 229.56 48.8715C230.752 48.0085 232.005 47.3304 233.32 46.8373C234.635 46.3442 235.929 46.0976 237.203 46.0976C240.08 46.0976 242.361 46.9812 244.045 48.7482C245.771 50.5152 246.634 52.9397 246.634 56.0218V77.9042C246.634 78.8905 246.141 79.3836 245.155 79.3836H238.313C237.902 79.3836 237.594 79.3014 237.388 79.137C237.224 78.9316 237.142 78.6028 237.142 78.1508V57.3162C237.142 55.919 236.772 54.8506 236.032 54.1109C235.292 53.3301 234.245 52.9397 232.888 52.9397C232.108 52.9397 231.347 53.1041 230.608 53.4329C229.868 53.7616 229.19 54.152 228.574 54.604C227.957 55.0561 227.423 55.5492 226.971 56.0834C226.683 56.3711 226.498 56.6587 226.416 56.9464C226.334 57.193 226.293 57.4806 226.293 57.8094V77.9042C226.293 78.8905 225.8 79.3836 224.814 79.3836H218.033C217.622 79.3836 217.314 79.3014 217.108 79.137C216.944 78.9316 216.862 78.6028 216.862 78.1508V57.3162C216.862 55.919 216.492 54.8506 215.752 54.1109C215.013 53.3301 213.944 52.9397 212.547 52.9397C211.314 52.9397 210.184 53.2685 209.157 53.926C208.129 54.5424 207.061 55.4876 205.952 56.7615V77.9659C205.952 78.911 205.417 79.3836 204.349 79.3836H197.753Z" fill="white"></path><path d="M270.671 76.2399C269.397 77.3905 267.959 78.3152 266.356 79.0137C264.794 79.6712 262.986 80 260.932 80C257.808 80 255.343 79.1576 253.535 77.4727C251.768 75.7879 250.884 73.6305 250.884 71.0005C250.884 68.6992 251.603 66.6856 253.042 64.9597C254.48 63.2337 256.535 61.8982 259.206 60.953C261.877 59.9668 265.062 59.4326 268.76 59.3504L270.917 59.1655C271.164 59.1655 271.39 59.1038 271.595 58.9805C271.801 58.8573 271.904 58.6312 271.904 58.3025V57.008C271.904 55.4465 271.452 54.2342 270.548 53.3712C269.643 52.4672 268.349 52.0151 266.664 52.0151C265.431 52.0151 264.24 52.3028 263.089 52.8781C261.98 53.4123 261.034 54.3575 260.254 55.7136C260.13 56.0012 259.986 56.1862 259.822 56.2683C259.658 56.3505 259.35 56.3505 258.897 56.2683L252.733 54.8506C252.487 54.7684 252.302 54.6451 252.179 54.4808C252.096 54.2753 252.179 53.8644 252.425 53.248C253.453 50.8234 255.22 49.0358 257.726 47.8852C260.274 46.6935 263.397 46.0976 267.096 46.0976C270.506 46.0976 273.219 46.5291 275.232 47.3921C277.246 48.2551 278.705 49.4673 279.609 51.0289C280.513 52.5494 280.965 54.3369 280.965 56.3916V78.0275C280.965 78.5206 280.883 78.8699 280.718 79.0754C280.554 79.2809 280.246 79.3836 279.794 79.3836H273.445C272.993 79.3836 272.664 79.2192 272.458 78.8905C272.294 78.5617 272.191 78.1508 272.15 77.6577L272.027 76.3016C271.945 75.5619 271.493 75.5413 270.671 76.2399ZM271.904 64.8364C271.904 64.1378 271.595 63.7885 270.979 63.7885L269.253 63.9118C268.185 63.9529 267.116 64.1173 266.048 64.4049C264.979 64.6515 264.014 65.0213 263.151 65.5144C262.288 65.9665 261.569 66.5623 260.993 67.302C260.459 68.0006 260.192 68.8225 260.192 69.7676C260.192 71.0005 260.623 71.9867 261.486 72.7264C262.349 73.425 263.541 73.7743 265.062 73.7743C266.089 73.7743 266.993 73.6099 267.774 73.2812C268.596 72.9524 269.294 72.562 269.87 72.11C270.486 71.5758 270.979 71.0416 271.349 70.5073C271.719 69.9731 271.904 69.4184 271.904 68.843V64.8364Z" fill="white"></path><path d="M289.131 79.3836C288.268 79.3836 287.836 78.9726 287.836 78.1508V47.8852C287.836 47.1044 288.165 46.714 288.823 46.714H296.281C296.897 46.714 297.206 47.0633 297.206 47.7619V50.7823C297.206 51.0289 297.267 51.1933 297.391 51.2754C297.514 51.3576 297.699 51.2755 297.945 51.0289C299.014 50.0426 300.082 49.1797 301.151 48.44C302.219 47.7003 303.349 47.125 304.541 46.714C305.733 46.3031 307.007 46.0976 308.363 46.0976C311.363 46.0976 313.725 46.9812 315.451 48.7482C317.218 50.5152 318.102 52.8781 318.102 55.8369V77.9042C318.102 78.8905 317.609 79.3836 316.623 79.3836H309.78C309.369 79.3836 309.061 79.3014 308.856 79.137C308.691 78.9316 308.609 78.6028 308.609 78.1508V57.3162C308.609 55.919 308.219 54.8506 307.438 54.1109C306.698 53.3301 305.589 52.9397 304.109 52.9397C303.246 52.9397 302.445 53.0836 301.705 53.3712C300.966 53.6589 300.247 54.0904 299.548 54.6657C298.849 55.1999 298.11 55.8985 297.329 56.7615V77.9659C297.329 78.911 296.795 79.3836 295.726 79.3836H289.131Z" fill="white"></path><path d="M120.663 80C117.417 80 114.541 79.2809 112.034 77.8426C109.568 76.4043 107.637 74.4318 106.24 71.9251C104.842 69.3773 104.144 66.4801 104.144 63.2337C104.144 59.823 104.863 56.8437 106.301 54.2958C107.739 51.7069 109.712 49.6933 112.219 48.2551C114.725 46.8168 117.561 46.0976 120.725 46.0976C124.054 46.0976 126.951 46.8373 129.416 48.3167C131.882 49.755 133.793 51.7686 135.149 54.3575C136.546 56.9053 137.245 59.8435 137.245 63.1721C137.245 66.4596 136.546 69.3773 135.149 71.9251C133.752 74.4318 131.8 76.4043 129.293 77.8426C126.828 79.2809 123.951 80 120.663 80ZM120.725 73.7126C122.246 73.7126 123.519 73.3223 124.547 72.5415C125.574 71.7196 126.334 70.5073 126.828 68.9047C127.362 67.302 127.629 65.3501 127.629 63.0488C127.629 60.6243 127.362 58.6312 126.828 57.0697C126.334 55.467 125.574 54.2547 124.547 53.4329C123.519 52.611 122.246 52.2001 120.725 52.2001C119.246 52.2001 117.972 52.611 116.903 53.4329C115.876 54.2547 115.095 55.467 114.561 57.0697C114.027 58.6312 113.76 60.6243 113.76 63.0488C113.76 65.3912 114.027 67.3637 114.561 68.9663C115.095 70.5279 115.876 71.7196 116.903 72.5415C117.972 73.3223 119.246 73.7126 120.725 73.7126Z" fill="white"></path><path fill-rule="evenodd" clip-rule="evenodd" d="M9.80993 9.80993V59.6444C9.80993 65.1164 14.2459 69.5524 19.718 69.5524H39.2397V19.718C39.2397 14.2459 34.8038 9.80993 29.3317 9.80993H9.80993ZM1.96199 0C0.878411 0 0 0.87841 0 1.96198V59.6444C0 70.5343 8.82803 79.3623 19.718 79.3623H47.0877C48.1712 79.3623 49.0497 78.4839 49.0497 77.4004V19.718C49.0497 8.82803 40.2216 0 29.3317 0H1.96199Z" fill="white"></path></svg>