<svg xmlns="http://www.w3.org/2000/svg" xmlns:xlink="http://www.w3.org/1999/xlink" width="168" height="50.863" viewBox="0 0 168 50.863">
  <defs>
    <clipPath id="clip-path">
      <path id="Caminho_112" data-name="Caminho 112" d="M0,0H168V50.863H0Z" fill="#e27339"/>
    </clipPath>
  </defs>
  <g id="Grupo_de_máscara_1" data-name="Grupo de máscara 1" clip-path="url(#clip-path)">
    <path id="Caminho_27" data-name="Caminho 27" d="M46.4,53.681a23.066,23.066,0,0,0-45.876,0Z" transform="translate(-0.396 -25.035)" fill="#e27339"/>
    <path id="Caminho_28" data-name="Caminho 28" d="M0,122.592c0,.292.007.582.018.872H46.112c.011-.29.018-.58.018-.872q0-.91-.07-1.8H.07q-.069.893-.07,1.8" transform="translate(0 -91.521)" fill="#e27339"/>
    <path id="Caminho_29" data-name="Caminho 29" d="M.229,134.788a23.044,23.044,0,0,0,.321,2.58H45.926a23.1,23.1,0,0,0,.321-2.58Z" transform="translate(-0.174 -102.129)" fill="#e27339"/>
    <path id="Caminho_30" data-name="Caminho 30" d="M2.545,150.169q.224.948.524,1.863H46.917q.3-.916.524-1.863Z" transform="translate(-1.928 -113.783)" fill="#e27339"/>
    <path id="Caminho_31" data-name="Caminho 31" d="M6.864,163.775q.354.878.777,1.72h41.25q.422-.841.777-1.72Z" transform="translate(-5.201 -124.092)" fill="#e27339"/>
    <path id="Caminho_32" data-name="Caminho 32" d="M14.387,178.564q.365.585.762,1.147H52.782q.4-.56.762-1.147Z" transform="translate(-10.901 -135.298)" fill="#e27339"/>
    <path id="Caminho_33" data-name="Caminho 33" d="M25.217,192.761q.476.516.983,1H58.144q.507-.487.983-1Z" transform="translate(-19.107 -146.055)" fill="#e27339"/>
    <path id="Caminho_34" data-name="Caminho 34" d="M41.669,206.958q.549.374,1.121.717h23.7q.571-.343,1.121-.717Z" transform="translate(-31.573 -156.812)" fill="#e27339"/>
    <path id="Caminho_35" data-name="Caminho 35" d="M35.577,20.881s.8,16.617-13.591,25.63c0,0,12.874-2.262,15.508,3.6,0,0,8.015-13.291-1.917-29.232" transform="translate(-16.659 -15.822)" fill="#fff"/>
    <path id="Caminho_36" data-name="Caminho 36" d="M90.663,0s9.668,16.421.614,33.686c0,0,11.2-9.553,16.881-5.084,0,0,.614-18.013-17.5-28.6" transform="translate(-68.695)" fill="#fff"/>
    <path id="Caminho_37" data-name="Caminho 37" d="M24.053,125.772l1.869,3.153H56.531l13.321-13.414Z" transform="translate(-18.225 -87.523)" fill="#fff"/>
    <path id="Caminho_38" data-name="Caminho 38" d="M232.615,70.763H216.288v4.556h9.492l-5.764,5.8.828,3.383h2.209c3.037,0,4.729,1.1,4.729,3.107,0,1.83-1.415,2.968-3.417,2.968a7.373,7.373,0,0,1-5.834-2.9l-3.659,3.486a11.723,11.723,0,0,0,9.423,4.177c5.385,0,8.7-3.348,8.7-7.939,0-4.522-3.176-6.248-6.489-6.8l5.5-5.247h10.371L231.345,95.339h6.006l11.061-20.572v-4Z" transform="translate(-162.809 -53.617)" fill="#e27339"/>
    <path id="Caminho_39" data-name="Caminho 39" d="M388.183,95.34h-3.476l-9.444-11.9-5.231,5.3v6.6h-2.774V70.764h2.774V85.439l14.114-14.676h3.581L377.194,81.507Z" transform="translate(-278.271 -53.618)" fill="#fff"/>
    <path id="Caminho_40" data-name="Caminho 40" d="M447.1,112.906h-2.7V93.947h2.7v3.546a6.874,6.874,0,0,1,6.214-3.546c4.389,0,6.952,2.949,6.952,7.268v11.691h-2.7V101.882c0-3.37-1.826-5.477-5.021-5.477a5.341,5.341,0,0,0-5.442,5.688Z" transform="translate(-336.719 -71.184)" fill="#fff"/>
    <path id="Caminho_41" data-name="Caminho 41" d="M526.284,112.906a9.307,9.307,0,0,1-9.409-9.445,9.462,9.462,0,1,1,9.409,9.445m0-16.572c-3.932,0-6.636,3.125-6.636,7.057a6.819,6.819,0,0,0,6.706,7.092,6.687,6.687,0,0,0,6.671-7.022,6.857,6.857,0,0,0-6.741-7.127" transform="translate(-391.636 -71.184)" fill="#fff"/>
    <path id="Caminho_42" data-name="Caminho 42" d="M605.688,95.34c-2.914,0-5.126-1.439-5.126-5.126V72.456l2.7-1.692v5.617h5.758v2.387h-5.758V89.864c0,2.212,1.229,3.02,3.054,3.02" transform="translate(-455.046 -53.618)" fill="#fff"/>
    <path id="Caminho_43" data-name="Caminho 43" d="M621.719,112.906l.632-2.457,10.406.158c2.177,0,3.757-1.132,3.757-2.9v-.071c0-1.839-2.142-2.546-4.529-3.219-2.844-.813-6-1.8-6-5.164v-.071c0-3.148,2.6-5.235,6.179-5.235a12.345,12.345,0,0,1,6.531,2.016l-1.229,2.052a10.211,10.211,0,0,0-5.372-1.769c-2.142,0-3.511,1.132-3.511,2.653v.071c0,1.733,2.247,2.405,4.67,3.148,2.809.849,5.828,1.946,5.828,5.235v.071c0,3.466-2.844,5.483-6.46,5.483Z" transform="translate(-471.077 -71.184)" fill="#fff"/>
  </g>
</svg>
